<svg width="30" height="27" viewBox="0 0 30 27" fill="none" xmlns="http://www.w3.org/2000/svg">
<g clip-path="url(#clip0_2998_22580)">
<path fill-rule="evenodd" clip-rule="evenodd" d="M15.3354 4.32918C15.1243 4.22361 14.8757 4.22361 14.6646 4.32918L6.66459 8.32918C6.4105 8.45622 6.25 8.71592 6.25 9C6.25 11.7136 6.97347 14.9571 8.37487 17.7272C9.77079 20.4864 11.9039 22.8954 14.794 23.7211C14.9286 23.7596 15.0714 23.7596 15.206 23.7211C16.1821 23.4423 17.0719 22.9828 17.8761 22.3902C17.4395 22.1161 17.0597 21.76 16.7581 21.3436C16.2071 21.7198 15.6204 22.0156 15 22.2161C12.77 21.4954 10.9749 19.5436 9.71334 17.0501C8.4977 14.6472 7.83397 11.8455 7.75746 9.45979L15 5.83853L22.2425 9.45979C22.1855 11.2394 21.8016 13.2505 21.1057 15.1548C21.6004 15.2968 22.0557 15.5316 22.4517 15.8392C23.3101 13.5545 23.75 11.1161 23.75 9C23.75 8.71592 23.5895 8.45622 23.3354 8.32918L15.3354 4.32918Z" fill="white"/>
<path d="M24 19C24 16.7909 22.2091 15 20 15C17.7909 15 16 16.7909 16 19C16 21.2091 17.7909 23 20 23C22.2091 23 24 21.2091 24 19Z" stroke="white"/>
<path d="M20 18.25C20.2762 18.25 20.5 18.0262 20.5 17.75C20.5 17.4739 20.2762 17.25 20 17.25C19.7238 17.25 19.5 17.4739 19.5 17.75C19.5 18.0262 19.7238 18.25 20 18.25Z" fill="white" stroke="white"/>
<path d="M18.5 20.75C18.5 20.3132 18.7929 19.75 19.25 19.75H20.75C21.2071 19.75 21.5 20.3132 21.5 20.75" fill="white"/>
<path d="M18.5 20.75C18.5 20.3132 18.7929 19.75 19.25 19.75H20.75C21.2071 19.75 21.5 20.3132 21.5 20.75" stroke="white"/>
</g>
<defs>
<clipPath id="clip0_2998_22580">
<rect width="30" height="27" fill="white"/>
</clipPath>
</defs>
</svg>
